<svg width="43" height="42" viewBox="0 0 43 42" fill="none" xmlns="http://www.w3.org/2000/svg">
<g clip-path="url(#clip0_462_2790)">
<path d="M21.2001 0.034668C9.71616 0.034668 0.405762 9.34416 0.405762 20.8285C0.405762 32.3127 9.71616 41.6224 21.2001 41.6224C32.6849 41.6224 41.9943 32.3127 41.9943 20.8285C41.9944 9.34416 32.6849 0.034668 21.2001 0.034668ZM21.2001 40.5826C10.2897 40.5826 1.44638 31.7385 1.44638 20.8285C1.44638 9.91864 10.2897 1.0741 21.2001 1.0741C32.1104 1.0741 40.9545 9.9186 40.9545 20.8285C40.9545 31.7385 32.1104 40.5826 21.2001 40.5826Z" fill="url(#paint0_linear_462_2790)"/>
<path d="M41.1033 20.8288C41.1033 31.8201 32.1914 40.7317 21.1999 40.7317C10.2083 40.7317 1.29736 31.8201 1.29736 20.8288C1.29736 9.83675 10.2083 0.925781 21.1999 0.925781C32.1914 0.925781 41.1033 9.83675 41.1033 20.8288Z" fill="#333333"/>
<path d="M40.9544 20.8286C40.9544 31.7386 32.1103 40.5827 21.2 40.5827C10.2896 40.5827 1.44629 31.7386 1.44629 20.8286C1.44629 9.91877 10.2896 1.07422 21.2 1.07422C32.1103 1.07422 40.9544 9.91877 40.9544 20.8286Z" fill="url(#paint1_radial_462_2790)"/>
<path d="M34.4437 20.8287C34.4437 28.1428 28.5142 34.072 21.2 34.072C13.8855 34.072 7.95605 28.1429 7.95605 20.8287C7.95605 13.5143 13.8855 7.58496 21.2 7.58496C28.5142 7.58496 34.4437 13.5143 34.4437 20.8287Z" fill="url(#paint2_linear_462_2790)"/>
<path d="M21.7308 7.22693L23.1065 3.58068V7.22693H24.1514V2.00488H22.5812L21.1529 5.74381H21.1665L19.7383 2.00488H18.168V7.22693H19.2129V3.58068L20.5886 7.22693H21.7308Z" fill="black"/>
<path d="M36.0703 9.56858L34.2851 12.1715L37.0891 10.7925L37.8497 11.7045L33.4366 13.9204L32.5448 12.8408L34.2555 10.2615L34.2454 10.2488L31.4 11.4667L30.498 10.3944L33.4737 6.4541L34.2344 7.36664L32.3712 9.87574L35.2547 8.58962L36.0703 9.56858Z" fill="black"/>
<path d="M11.9517 8.5711C11.5311 8.16285 10.8822 8.03978 10.2721 8.41795C10.3889 8.11588 10.3415 7.80839 10.2798 7.63785C10.0166 7.15941 9.9244 7.09889 9.70955 6.91739C9.00813 6.32974 8.27028 6.83153 7.74318 7.45971L5.19482 10.4968L9.20104 13.8578L11.8882 10.6559C12.5024 9.92405 12.5972 9.19851 11.9517 8.5711ZM6.76927 10.0357L8.29999 8.21155C8.47763 8.00043 8.8787 8.00889 9.13589 8.22554C9.41929 8.46329 9.42011 8.79999 9.22979 9.02719L7.71611 10.8303L6.76927 10.0357ZM10.9922 10.339L9.39648 12.2407L8.3973 11.4009L10.0049 9.48454C10.1868 9.26788 10.5921 9.20487 10.8654 9.43412C11.1733 9.69308 11.2037 10.0869 10.9922 10.339Z" fill="#333333"/>
<path d="M21.7417 7.02527L23.1174 3.37911V7.02527H24.1624V1.80322H22.5919L21.1638 5.54203H21.1773L19.7491 1.80322H18.1787V7.02527H19.2237V3.37911L20.5995 7.02527H21.7417Z" fill="url(#paint3_radial_462_2790)"/>
<path d="M36.0803 9.21795L34.2958 11.821L37.0998 10.4415L37.8596 11.354L33.4471 13.5698L32.5554 12.4898L34.2662 9.91092L34.2561 9.89783L31.4098 11.1162L30.5088 10.0433L33.4845 6.10352L34.2451 7.01568L32.382 9.52474L35.2645 8.23911L36.0803 9.21795Z" fill="url(#paint4_radial_462_2790)"/>
<path d="M11.7647 8.46824C11.345 8.05999 10.6952 7.93683 10.0861 8.31468C10.202 8.01257 10.1546 7.70504 10.0929 7.53535C9.82974 7.05609 9.73837 6.9964 9.52172 6.81453C8.82034 6.22651 8.08339 6.72858 7.55711 7.35734L5.00781 10.3939L9.0141 13.755L11.7013 10.5526C12.3147 9.8207 12.4103 9.09565 11.7647 8.46824ZM6.58246 9.93278L8.11301 8.10906C8.28992 7.89757 8.6909 7.90602 8.94896 8.12215C9.2324 8.36034 9.23326 8.69745 9.042 8.92379L7.52926 10.7272L6.58246 9.93278ZM10.8062 10.2361L9.21041 12.1377L8.20947 11.2979L9.81796 9.38115C9.99983 9.16498 10.4043 9.10192 10.6776 9.33126C10.9872 9.59054 11.0177 9.98357 10.8062 10.2361Z" fill="url(#paint5_radial_462_2790)"/>
<path d="M8.39697 20.8288C8.39697 13.7577 14.1293 8.02539 21.2 8.02539C28.2715 8.02539 34.003 13.7577 34.003 20.8288C34.003 27.8996 28.2715 33.6318 21.2 33.6318C14.1292 33.6318 8.39697 27.8996 8.39697 20.8288Z" fill="url(#paint6_radial_462_2790)"/>
<path d="M8.76514 20.829C8.76514 13.9613 14.3324 8.39355 21.2001 8.39355C28.0679 8.39355 33.6359 13.9612 33.6359 20.829C33.6359 27.6967 28.0678 33.2644 21.2001 33.2644C14.3325 33.2644 8.76514 27.6967 8.76514 20.829Z" fill="url(#paint7_radial_462_2790)"/>
<path d="M8.74561 20.8289H21.2001V8.37451C14.3213 8.37451 8.74561 13.9502 8.74561 20.8289Z" fill="url(#paint8_radial_462_2790)"/>
<path d="M21.2002 20.8286V33.2832C28.0789 33.2832 33.6546 27.7064 33.6546 20.8286H21.2002Z" fill="url(#paint9_radial_462_2790)"/>
<path d="M33.7578 20.6073H21.421V8.27051H20.9794V20.6073H8.64258V21.049H20.9794V33.3862H21.421V21.049H33.7578V20.6073Z" fill="url(#paint10_radial_462_2790)"/>
<path d="M21.4209 8.62014C27.9909 8.73698 33.2924 14.0381 33.41 20.6075H33.6299C33.5124 13.9162 28.1127 8.51573 21.4209 8.39893V8.62014H21.4209Z" fill="url(#paint11_linear_462_2790)"/>
<path d="M8.96889 20.606C9.08561 14.0277 14.3948 8.71891 20.9732 8.6017V8.38086C14.2722 8.49803 8.86567 13.9058 8.74805 20.606H8.96889V20.606Z" fill="#C2D7E8"/>
<path d="M20.9795 33.0374C14.4096 32.9207 9.10807 27.6191 8.99127 21.0493H8.77051C8.88809 27.741 14.2878 33.1417 20.9795 33.2584V33.0374H20.9795Z" fill="url(#paint12_linear_462_2790)"/>
<path d="M33.41 21.0493C33.2924 27.6191 27.9908 32.9207 21.4209 33.0374V33.2584C28.1126 33.1417 33.5131 27.741 33.6299 21.0493H33.41Z" fill="#12404F"/>
<path d="M20.7433 8.38086V20.3653H8.75928V20.6017H20.7433H20.9793V20.3653V8.38086H20.7433Z" fill="url(#paint13_linear_462_2790)"/>
<path d="M20.7231 33.1425V21.3023H8.8584V21.0688H20.7231H20.9565V21.3023V33.1425H20.7231Z" fill="url(#paint14_linear_462_2790)"/>
<path d="M21.6741 33.1425V21.3023H33.5142V21.0688H21.6741H21.4414V21.3023V33.1425H21.6741Z" fill="url(#paint15_linear_462_2790)"/>
<path d="M21.6741 8.48633V20.3265H33.5142V20.5596H21.6741H21.4414V20.3265V8.48633H21.6741Z" fill="url(#paint16_linear_462_2790)"/>
</g>
<defs>
<linearGradient id="paint0_linear_462_2790" x1="-2.63822" y1="-2.20733" x2="41.4829" y2="40.4282" gradientUnits="userSpaceOnUse">
<stop stop-color="#DFF4FF"/>
<stop offset="0.0984" stop-color="#D6EAF5"/>
<stop offset="0.2678" stop-color="#BFD0D9"/>
<stop offset="0.4879" stop-color="#98A5AC"/>
<stop offset="0.7469" stop-color="#646B6E"/>
<stop offset="1" stop-color="#2B2B2B"/>
</linearGradient>
<radialGradient id="paint1_radial_462_2790" cx="0" cy="0" r="1" gradientUnits="userSpaceOnUse" gradientTransform="translate(0.146492 1.41006) scale(29.543 29.543)">
<stop stop-color="white"/>
<stop offset="0.3064" stop-color="#A8A8A8"/>
<stop offset="0.6461" stop-color="#4F4F4F"/>
<stop offset="0.8853" stop-color="#161616"/>
<stop offset="1"/>
</radialGradient>
<linearGradient id="paint2_linear_462_2790" x1="36.3825" y1="35.5" x2="8.28199" y2="8.34561" gradientUnits="userSpaceOnUse">
<stop stop-color="#DFF4FF"/>
<stop offset="0.0855" stop-color="#D6EAF5"/>
<stop offset="0.2327" stop-color="#BED0D9"/>
<stop offset="0.4239" stop-color="#96A4AC"/>
<stop offset="0.6516" stop-color="#5F686D"/>
<stop offset="0.9075" stop-color="#1A1D1E"/>
<stop offset="1"/>
</linearGradient>
<radialGradient id="paint3_radial_462_2790" cx="0" cy="0" r="1" gradientUnits="userSpaceOnUse" gradientTransform="translate(-5.15916 -1.59843) scale(70.9875 70.9875)">
<stop stop-color="white"/>
<stop offset="0.3102" stop-color="#FDFDFD"/>
<stop offset="0.4505" stop-color="#F6F6F6"/>
<stop offset="0.5567" stop-color="#E9E9E9"/>
<stop offset="0.6456" stop-color="#D7D7D7"/>
<stop offset="0.7238" stop-color="#BFBFBF"/>
<stop offset="0.7944" stop-color="#A2A2A2"/>
<stop offset="0.8593" stop-color="#808080"/>
<stop offset="0.9199" stop-color="#575757"/>
<stop offset="0.9746" stop-color="#2B2B2B"/>
<stop offset="1" stop-color="#141414"/>
</radialGradient>
<radialGradient id="paint4_radial_462_2790" cx="0" cy="0" r="1" gradientUnits="userSpaceOnUse" gradientTransform="translate(-5.16242 -1.59873) scale(70.9936 70.9935)">
<stop stop-color="white"/>
<stop offset="0.3102" stop-color="#FDFDFD"/>
<stop offset="0.4505" stop-color="#F6F6F6"/>
<stop offset="0.5567" stop-color="#E9E9E9"/>
<stop offset="0.6456" stop-color="#D7D7D7"/>
<stop offset="0.7238" stop-color="#BFBFBF"/>
<stop offset="0.7944" stop-color="#A2A2A2"/>
<stop offset="0.8593" stop-color="#808080"/>
<stop offset="0.9199" stop-color="#575757"/>
<stop offset="0.9746" stop-color="#2B2B2B"/>
<stop offset="1" stop-color="#141414"/>
</radialGradient>
<radialGradient id="paint5_radial_462_2790" cx="0" cy="0" r="1" gradientUnits="userSpaceOnUse" gradientTransform="translate(-5.16603 -1.6193) scale(71.0479 71.0479)">
<stop stop-color="white"/>
<stop offset="0.3102" stop-color="#FDFDFD"/>
<stop offset="0.4505" stop-color="#F6F6F6"/>
<stop offset="0.5567" stop-color="#E9E9E9"/>
<stop offset="0.6456" stop-color="#D7D7D7"/>
<stop offset="0.7238" stop-color="#BFBFBF"/>
<stop offset="0.7944" stop-color="#A2A2A2"/>
<stop offset="0.8593" stop-color="#808080"/>
<stop offset="0.9199" stop-color="#575757"/>
<stop offset="0.9746" stop-color="#2B2B2B"/>
<stop offset="1" stop-color="#141414"/>
</radialGradient>
<radialGradient id="paint6_radial_462_2790" cx="0" cy="0" r="1" gradientUnits="userSpaceOnUse" gradientTransform="translate(7.55452 8.24304) scale(19.1475 19.1475)">
<stop stop-color="#E6E6E6"/>
<stop offset="0.1045" stop-color="#D6D6D6"/>
<stop offset="0.3074" stop-color="#ADADAD"/>
<stop offset="0.5884" stop-color="#6C6C6C"/>
<stop offset="0.9335" stop-color="#121212"/>
<stop offset="1"/>
</radialGradient>
<radialGradient id="paint7_radial_462_2790" cx="0" cy="0" r="1" gradientUnits="userSpaceOnUse" gradientTransform="translate(12.7917 10.8185) scale(27.8459 27.8459)">
<stop stop-color="white"/>
<stop offset="0.3435" stop-color="#FDFDFD"/>
<stop offset="0.4814" stop-color="#F6F6F6"/>
<stop offset="0.5824" stop-color="#EAEAEA"/>
<stop offset="0.6654" stop-color="#D8D8D8"/>
<stop offset="0.7373" stop-color="#C2C2C2"/>
<stop offset="0.8016" stop-color="#A6A6A6"/>
<stop offset="0.8602" stop-color="#848484"/>
<stop offset="0.9126" stop-color="#5F5F5F"/>
<stop offset="0.9494" stop-color="#404040"/>
<stop offset="0.9566" stop-color="#404040"/>
<stop offset="1"/>
</radialGradient>
<radialGradient id="paint8_radial_462_2790" cx="0" cy="0" r="1" gradientUnits="userSpaceOnUse" gradientTransform="translate(4.61571 0.262999) scale(49.3155 49.3155)">
<stop offset="0.1685" stop-color="white"/>
<stop offset="0.1957" stop-color="#E0EFF7"/>
<stop offset="0.2406" stop-color="#B2D9EC"/>
<stop offset="0.2872" stop-color="#8BC5E2"/>
<stop offset="0.335" stop-color="#6BB5DA"/>
<stop offset="0.3844" stop-color="#52A9D4"/>
<stop offset="0.4359" stop-color="#41A0CF"/>
<stop offset="0.4911" stop-color="#369BCD"/>
<stop offset="0.5562" stop-color="#3399CC"/>
<stop offset="0.606" stop-color="#3396C8"/>
<stop offset="0.6553" stop-color="#328EBC"/>
<stop offset="0.7045" stop-color="#3180A8"/>
<stop offset="0.7536" stop-color="#2F6D8C"/>
<stop offset="0.8027" stop-color="#2D5468"/>
<stop offset="0.8512" stop-color="#2A373D"/>
<stop offset="0.8708" stop-color="#292929"/>
</radialGradient>
<radialGradient id="paint9_radial_462_2790" cx="0" cy="0" r="1" gradientUnits="userSpaceOnUse" gradientTransform="translate(4.61585 0.262345) scale(49.3145 49.3145)">
<stop offset="0.1685" stop-color="white"/>
<stop offset="0.1957" stop-color="#E0EFF7"/>
<stop offset="0.2406" stop-color="#B2D9EC"/>
<stop offset="0.2872" stop-color="#8BC5E2"/>
<stop offset="0.335" stop-color="#6BB5DA"/>
<stop offset="0.3844" stop-color="#52A9D4"/>
<stop offset="0.4359" stop-color="#41A0CF"/>
<stop offset="0.4911" stop-color="#369BCD"/>
<stop offset="0.5562" stop-color="#3399CC"/>
<stop offset="0.606" stop-color="#3396C8"/>
<stop offset="0.6553" stop-color="#328EBC"/>
<stop offset="0.7045" stop-color="#3180A8"/>
<stop offset="0.7536" stop-color="#2F6D8C"/>
<stop offset="0.8027" stop-color="#2D5468"/>
<stop offset="0.8512" stop-color="#2A373D"/>
<stop offset="0.8708" stop-color="#292929"/>
</radialGradient>
<radialGradient id="paint10_radial_462_2790" cx="0" cy="0" r="1" gradientUnits="userSpaceOnUse" gradientTransform="translate(7.81629 8.48401) scale(18.7805 18.7805)">
<stop stop-color="#E6E6E6"/>
<stop offset="0.1045" stop-color="#D6D6D6"/>
<stop offset="0.3074" stop-color="#ADADAD"/>
<stop offset="0.5884" stop-color="#6C6C6C"/>
<stop offset="0.9335" stop-color="#121212"/>
<stop offset="1"/>
</radialGradient>
<linearGradient id="paint11_linear_462_2790" x1="18.7376" y1="3.795" x2="37.0522" y2="21.493" gradientUnits="userSpaceOnUse">
<stop stop-color="#F0F4FF"/>
<stop offset="0.1086" stop-color="#EBEFF9"/>
<stop offset="0.2475" stop-color="#DCE0EA"/>
<stop offset="0.4028" stop-color="#C4C7CF"/>
<stop offset="0.5701" stop-color="#A2A4AB"/>
<stop offset="0.7469" stop-color="#76777C"/>
<stop offset="0.9291" stop-color="#414243"/>
<stop offset="1" stop-color="#2B2B2B"/>
</linearGradient>
<linearGradient id="paint12_linear_462_2790" x1="3.87218" y1="18.7373" x2="22.1872" y2="36.4356" gradientUnits="userSpaceOnUse">
<stop stop-color="#F0F4FF"/>
<stop offset="0.1086" stop-color="#EBEFF9"/>
<stop offset="0.2475" stop-color="#DCE0EA"/>
<stop offset="0.4028" stop-color="#C4C7CF"/>
<stop offset="0.5701" stop-color="#A2A4AB"/>
<stop offset="0.7469" stop-color="#76777C"/>
<stop offset="0.9291" stop-color="#414243"/>
<stop offset="1" stop-color="#2B2B2B"/>
</linearGradient>
<linearGradient id="paint13_linear_462_2790" x1="12.7324" y1="12.4264" x2="22.2294" y2="21.6037" gradientUnits="userSpaceOnUse">
<stop stop-color="#C2D7E8"/>
<stop offset="0.1337" stop-color="#BACFE1"/>
<stop offset="0.3425" stop-color="#A4BACD"/>
<stop offset="0.6001" stop-color="#8098AC"/>
<stop offset="0.894" stop-color="#4E697F"/>
<stop offset="1" stop-color="#3A566D"/>
</linearGradient>
<linearGradient id="paint14_linear_462_2790" x1="7.97615" y1="14.6752" x2="26.1068" y2="32.1954" gradientUnits="userSpaceOnUse">
<stop stop-color="#F0F4FF"/>
<stop offset="0.0973" stop-color="#E8EBF6"/>
<stop offset="0.2568" stop-color="#D1D4DD"/>
<stop offset="0.4587" stop-color="#ABAEB5"/>
<stop offset="0.6951" stop-color="#78797D"/>
<stop offset="0.9578" stop-color="#363637"/>
<stop offset="1" stop-color="#2B2B2B"/>
</linearGradient>
<linearGradient id="paint15_linear_462_2790" x1="21.3397" y1="21.1742" x2="27.6994" y2="27.3198" gradientUnits="userSpaceOnUse">
<stop stop-color="#D9DEF0"/>
<stop offset="0.1229" stop-color="#D4DAEC"/>
<stop offset="0.2629" stop-color="#C7CFE2"/>
<stop offset="0.4114" stop-color="#B0BCD1"/>
<stop offset="0.5657" stop-color="#90A1B8"/>
<stop offset="0.7246" stop-color="#677F99"/>
<stop offset="0.8849" stop-color="#355674"/>
<stop offset="0.9719" stop-color="#173D5D"/>
</linearGradient>
<linearGradient id="paint16_linear_462_2790" x1="14.8338" y1="8.0254" x2="32.9448" y2="25.5266" gradientUnits="userSpaceOnUse">
<stop stop-color="#F0F4FF"/>
<stop offset="0.1086" stop-color="#EBEFF9"/>
<stop offset="0.2475" stop-color="#DCE0EA"/>
<stop offset="0.4028" stop-color="#C4C7CF"/>
<stop offset="0.5701" stop-color="#A2A4AB"/>
<stop offset="0.7469" stop-color="#76777C"/>
<stop offset="0.9291" stop-color="#414243"/>
<stop offset="1" stop-color="#2B2B2B"/>
</linearGradient>
<clipPath id="clip0_462_2790">
<rect width="41.6412" height="41.6412" fill="white" transform="translate(0.37793)"/>
</clipPath>
</defs>
</svg>
