<svg width="80" height="80" viewBox="0 0 80 80" fill="none" xmlns="http://www.w3.org/2000/svg">
<g clip-path="url(#clip0_460_1557)">
<path d="M40.0031 0.0668945C17.9405 0.0668945 0.0535889 17.9521 0.0535889 40.0155C0.0535889 62.0786 17.9405 79.9641 40.0031 79.9641C62.0674 79.9641 79.9525 62.0786 79.9525 40.0155C79.9525 17.9521 62.0675 0.0668945 40.0031 0.0668945ZM40.0031 77.9666C19.0424 77.9666 2.0528 60.9755 2.0528 40.0155C2.0528 19.0557 19.0424 2.06382 40.0031 2.06382C60.9637 2.06382 77.9548 19.0557 77.9548 40.0155C77.9548 60.9755 60.9637 77.9666 40.0031 77.9666Z" fill="url(#paint0_linear_460_1557)"/>
<path d="M78.241 40.0154C78.241 61.1318 61.1197 78.2525 40.0031 78.2525C18.8864 78.2525 1.76685 61.1318 1.76685 40.0154C1.76685 18.8978 18.8864 1.77832 40.0031 1.77832C61.1197 1.77832 78.241 18.8978 78.241 40.0154Z" fill="#333333"/>
<path d="M77.9547 40.0152C77.9547 60.9752 60.9637 77.9662 40.0031 77.9662C19.0424 77.9662 2.0528 60.9752 2.0528 40.0152C2.0528 19.0554 19.0424 2.06348 40.0031 2.06348C60.9637 2.06348 77.9547 19.0554 77.9547 40.0152V40.0152Z" fill="url(#paint1_radial_460_1557)"/>
<path d="M65.4468 40.0154C65.4468 54.067 54.0553 65.458 40.0032 65.458C25.9509 65.458 14.5594 54.0671 14.5594 40.0154C14.5594 25.9631 25.9509 14.5718 40.0032 14.5718C54.0553 14.5718 65.4468 25.9631 65.4468 40.0154Z" fill="url(#paint2_linear_460_1557)"/>
<path d="M41.0223 13.884L43.6653 6.87895V13.884H45.6727V3.85156H42.656L39.912 11.0347H39.9381L37.1943 3.85156H34.1775V13.884H36.1849V6.87895L38.8279 13.884H41.0223Z" fill="black"/>
<path d="M68.5709 18.3829L65.1411 23.3836L70.5282 20.7342L71.9893 22.4864L63.5109 26.7435L61.7978 24.6694L65.0843 19.7142L65.0648 19.6897L59.5983 22.0295L57.8655 19.9694L63.5823 12.3994L65.0438 14.1526L61.4641 18.973L67.004 16.5021L68.5709 18.3829Z" fill="black"/>
<path d="M22.235 16.4664C21.4271 15.682 20.1803 15.4456 19.0083 16.1721C19.2327 15.5918 19.1416 15.0011 19.023 14.6734C18.5174 13.7542 18.3403 13.638 17.9275 13.2893C16.5799 12.1603 15.1624 13.1243 14.1497 14.3312L9.25391 20.1659L16.9505 26.6231L22.1131 20.4716C23.2931 19.0656 23.4752 17.6717 22.235 16.4664ZM12.2787 19.2802L15.2195 15.7756C15.5607 15.37 16.3313 15.3862 16.8254 15.8025C17.3698 16.2592 17.3714 16.9061 17.0058 17.3426L14.0977 20.8066L12.2787 19.2802ZM20.3917 19.8629L17.326 23.5163L15.4064 21.9029L18.4949 18.2212C18.8444 17.805 19.623 17.6839 20.148 18.1244C20.7395 18.6219 20.798 19.3785 20.3917 19.8629Z" fill="#333333"/>
<path d="M41.0435 13.4963L43.6864 6.49141V13.4963H45.694V3.46387H42.6769L39.9332 10.6468H39.9592L37.2154 3.46387H34.1984V13.4963H36.2059V6.49141L38.8491 13.4963H41.0435Z" fill="url(#paint3_radial_460_1557)"/>
<path d="M68.5906 17.7094L65.1624 22.7104L70.5492 20.06L72.009 21.8131L63.5318 26.0702L61.8187 23.9953L65.1054 19.0408L65.0861 19.0156L59.6178 21.3563L57.8868 19.2952L63.6037 11.7261L65.0649 13.4785L61.4857 18.2988L67.0235 15.8289L68.5906 17.7094Z" fill="url(#paint4_radial_460_1557)"/>
<path d="M21.8757 16.2689C21.0694 15.4846 19.821 15.248 18.6508 15.9739C18.8734 15.3935 18.7825 14.8027 18.6639 14.4767C18.1583 13.5559 17.9828 13.4413 17.5665 13.0919C16.2191 11.9622 14.8033 12.9267 13.7922 14.1347L8.89453 19.9685L16.5913 26.4257L21.7538 20.2733C22.9324 18.8672 23.1159 17.4743 21.8757 16.2689ZM11.9197 19.0826L14.8602 15.5789C15.2 15.1726 15.9704 15.1888 16.4662 15.604C17.0107 16.0616 17.0124 16.7093 16.6449 17.1441L13.7387 20.6089L11.9197 19.0826ZM20.0342 19.6653L16.9685 23.3186L15.0455 21.7052L18.1357 18.0228C18.4851 17.6075 19.2621 17.4863 19.7871 17.9269C20.382 18.4251 20.4405 19.1801 20.0342 19.6653Z" fill="url(#paint5_radial_460_1557)"/>
<path d="M15.4064 40.0156C15.4064 26.4307 26.4191 15.418 40.0033 15.418C53.5888 15.418 64.6001 26.4307 64.6001 40.0156C64.6001 53.5999 53.5888 64.6123 40.0033 64.6123C26.419 64.6123 15.4064 53.5999 15.4064 40.0156Z" fill="url(#paint6_radial_460_1557)"/>
<path d="M16.1134 40.0156C16.1134 26.8216 26.8091 16.125 40.0032 16.125C53.1973 16.125 63.8944 26.8215 63.8944 40.0156C63.8944 53.2098 53.1972 63.9063 40.0032 63.9063C26.8092 63.9063 16.1134 53.2098 16.1134 40.0156Z" fill="url(#paint7_radial_460_1557)"/>
<path d="M16.076 40.0155H40.0032V16.0884C26.7879 16.0884 16.076 26.8003 16.076 40.0155Z" fill="url(#paint8_radial_460_1557)"/>
<path d="M40.0032 40.0156V63.943C53.2183 63.943 63.9303 53.2291 63.9303 40.0156H40.0032Z" fill="url(#paint9_radial_460_1557)"/>
<path d="M64.1285 39.5908H40.4274V15.8896H39.5788V39.5908H15.8777V40.4394H39.5788V64.1412H40.4274V40.4394H64.1285V39.5908Z" fill="url(#paint10_radial_460_1557)"/>
<path d="M40.4273 16.5607C53.0493 16.7852 63.2345 26.9696 63.4604 39.5906H63.8828C63.6572 26.7355 53.2833 16.3601 40.4272 16.1357V16.5607H40.4273Z" fill="url(#paint11_linear_460_1557)"/>
<path d="M16.5051 39.5872C16.7294 26.9491 26.9293 16.75 39.5675 16.5249V16.1006C26.6938 16.3257 16.3068 26.7149 16.0809 39.5872H16.5051V39.5872Z" fill="#C2D7E8"/>
<path d="M39.5788 63.4701C26.957 63.246 16.7718 53.0608 16.5474 40.439H16.1233C16.3492 53.2948 26.723 63.6705 39.5789 63.8946V63.4701H39.5788Z" fill="url(#paint12_linear_460_1557)"/>
<path d="M63.4605 40.439C63.2346 53.0608 53.0493 63.246 40.4274 63.4701V63.8946C53.2834 63.6705 63.6587 53.2948 63.883 40.439H63.4605Z" fill="#12404F"/>
<path d="M39.1254 16.1006V39.1247H16.102V39.5791H39.1254H39.5788V39.1247V16.1006H39.1254Z" fill="url(#paint13_linear_460_1557)"/>
<path d="M39.0865 63.6722V40.9251H16.2924V40.4766H39.0865H39.535V40.9251V63.6722H39.0865Z" fill="url(#paint14_linear_460_1557)"/>
<path d="M40.9134 63.6722V40.9251H63.6604V40.4766H40.9134H40.4664V40.9251V63.6722H40.9134Z" fill="url(#paint15_linear_460_1557)"/>
<path d="M40.9134 16.3042V39.0512H63.6604V39.499H40.9134H40.4664V39.0512V16.3042H40.9134Z" fill="url(#paint16_linear_460_1557)"/>
</g>
<defs>
<linearGradient id="paint0_linear_460_1557" x1="-5.79443" y1="-4.24037" x2="78.9699" y2="77.6699" gradientUnits="userSpaceOnUse">
<stop stop-color="#DFF4FF"/>
<stop offset="0.0984" stop-color="#D6EAF5"/>
<stop offset="0.2678" stop-color="#BFD0D9"/>
<stop offset="0.4879" stop-color="#98A5AC"/>
<stop offset="0.7469" stop-color="#646B6E"/>
<stop offset="1" stop-color="#2B2B2B"/>
</linearGradient>
<radialGradient id="paint1_radial_460_1557" cx="0" cy="0" r="1" gradientUnits="userSpaceOnUse" gradientTransform="translate(-0.444342 2.70868) scale(56.7572 56.7573)">
<stop stop-color="white"/>
<stop offset="0.3064" stop-color="#A8A8A8"/>
<stop offset="0.6461" stop-color="#4F4F4F"/>
<stop offset="0.8853" stop-color="#161616"/>
<stop offset="1"/>
</radialGradient>
<linearGradient id="paint2_linear_460_1557" x1="69.1716" y1="68.2015" x2="15.1856" y2="16.0331" gradientUnits="userSpaceOnUse">
<stop stop-color="#DFF4FF"/>
<stop offset="0.0855" stop-color="#D6EAF5"/>
<stop offset="0.2327" stop-color="#BED0D9"/>
<stop offset="0.4239" stop-color="#96A4AC"/>
<stop offset="0.6516" stop-color="#5F686D"/>
<stop offset="0.9075" stop-color="#1A1D1E"/>
<stop offset="1"/>
</linearGradient>
<radialGradient id="paint3_radial_460_1557" cx="0" cy="0" r="1" gradientUnits="userSpaceOnUse" gradientTransform="translate(-10.6378 -3.0713) scale(136.379 136.379)">
<stop stop-color="white"/>
<stop offset="0.3102" stop-color="#FDFDFD"/>
<stop offset="0.4505" stop-color="#F6F6F6"/>
<stop offset="0.5567" stop-color="#E9E9E9"/>
<stop offset="0.6456" stop-color="#D7D7D7"/>
<stop offset="0.7238" stop-color="#BFBFBF"/>
<stop offset="0.7944" stop-color="#A2A2A2"/>
<stop offset="0.8593" stop-color="#808080"/>
<stop offset="0.9199" stop-color="#575757"/>
<stop offset="0.9746" stop-color="#2B2B2B"/>
<stop offset="1" stop-color="#141414"/>
</radialGradient>
<radialGradient id="paint4_radial_460_1557" cx="0" cy="0" r="1" gradientUnits="userSpaceOnUse" gradientTransform="translate(-10.6438 -3.07128) scale(136.391 136.391)">
<stop stop-color="white"/>
<stop offset="0.3102" stop-color="#FDFDFD"/>
<stop offset="0.4505" stop-color="#F6F6F6"/>
<stop offset="0.5567" stop-color="#E9E9E9"/>
<stop offset="0.6456" stop-color="#D7D7D7"/>
<stop offset="0.7238" stop-color="#BFBFBF"/>
<stop offset="0.7944" stop-color="#A2A2A2"/>
<stop offset="0.8593" stop-color="#808080"/>
<stop offset="0.9199" stop-color="#575757"/>
<stop offset="0.9746" stop-color="#2B2B2B"/>
<stop offset="1" stop-color="#141414"/>
</radialGradient>
<radialGradient id="paint5_radial_460_1557" cx="0" cy="0" r="1" gradientUnits="userSpaceOnUse" gradientTransform="translate(-10.6512 -3.111) scale(136.495 136.496)">
<stop stop-color="white"/>
<stop offset="0.3102" stop-color="#FDFDFD"/>
<stop offset="0.4505" stop-color="#F6F6F6"/>
<stop offset="0.5567" stop-color="#E9E9E9"/>
<stop offset="0.6456" stop-color="#D7D7D7"/>
<stop offset="0.7238" stop-color="#BFBFBF"/>
<stop offset="0.7944" stop-color="#A2A2A2"/>
<stop offset="0.8593" stop-color="#808080"/>
<stop offset="0.9199" stop-color="#575757"/>
<stop offset="0.9746" stop-color="#2B2B2B"/>
<stop offset="1" stop-color="#141414"/>
</radialGradient>
<radialGradient id="paint6_radial_460_1557" cx="0" cy="0" r="1" gradientUnits="userSpaceOnUse" gradientTransform="translate(13.7879 15.8361) scale(36.7857 36.7857)">
<stop stop-color="#E6E6E6"/>
<stop offset="0.1045" stop-color="#D6D6D6"/>
<stop offset="0.3074" stop-color="#ADADAD"/>
<stop offset="0.5884" stop-color="#6C6C6C"/>
<stop offset="0.9335" stop-color="#121212"/>
<stop offset="1"/>
</radialGradient>
<radialGradient id="paint7_radial_460_1557" cx="0" cy="0" r="1" gradientUnits="userSpaceOnUse" gradientTransform="translate(23.8491 20.7837) scale(53.4969 53.4969)">
<stop stop-color="white"/>
<stop offset="0.3435" stop-color="#FDFDFD"/>
<stop offset="0.4814" stop-color="#F6F6F6"/>
<stop offset="0.5824" stop-color="#EAEAEA"/>
<stop offset="0.6654" stop-color="#D8D8D8"/>
<stop offset="0.7373" stop-color="#C2C2C2"/>
<stop offset="0.8016" stop-color="#A6A6A6"/>
<stop offset="0.8602" stop-color="#848484"/>
<stop offset="0.9126" stop-color="#5F5F5F"/>
<stop offset="0.9494" stop-color="#404040"/>
<stop offset="0.9566" stop-color="#404040"/>
<stop offset="1"/>
</radialGradient>
<radialGradient id="paint8_radial_460_1557" cx="0" cy="0" r="1" gradientUnits="userSpaceOnUse" gradientTransform="translate(8.14174 0.504746) scale(94.7436)">
<stop offset="0.1685" stop-color="white"/>
<stop offset="0.1957" stop-color="#E0EFF7"/>
<stop offset="0.2406" stop-color="#B2D9EC"/>
<stop offset="0.2872" stop-color="#8BC5E2"/>
<stop offset="0.335" stop-color="#6BB5DA"/>
<stop offset="0.3844" stop-color="#52A9D4"/>
<stop offset="0.4359" stop-color="#41A0CF"/>
<stop offset="0.4911" stop-color="#369BCD"/>
<stop offset="0.5562" stop-color="#3399CC"/>
<stop offset="0.606" stop-color="#3396C8"/>
<stop offset="0.6553" stop-color="#328EBC"/>
<stop offset="0.7045" stop-color="#3180A8"/>
<stop offset="0.7536" stop-color="#2F6D8C"/>
<stop offset="0.8027" stop-color="#2D5468"/>
<stop offset="0.8512" stop-color="#2A373D"/>
<stop offset="0.8708" stop-color="#292929"/>
</radialGradient>
<radialGradient id="paint9_radial_460_1557" cx="0" cy="0" r="1" gradientUnits="userSpaceOnUse" gradientTransform="translate(8.14175 0.50423) scale(94.7418 94.7418)">
<stop offset="0.1685" stop-color="white"/>
<stop offset="0.1957" stop-color="#E0EFF7"/>
<stop offset="0.2406" stop-color="#B2D9EC"/>
<stop offset="0.2872" stop-color="#8BC5E2"/>
<stop offset="0.335" stop-color="#6BB5DA"/>
<stop offset="0.3844" stop-color="#52A9D4"/>
<stop offset="0.4359" stop-color="#41A0CF"/>
<stop offset="0.4911" stop-color="#369BCD"/>
<stop offset="0.5562" stop-color="#3399CC"/>
<stop offset="0.606" stop-color="#3396C8"/>
<stop offset="0.6553" stop-color="#328EBC"/>
<stop offset="0.7045" stop-color="#3180A8"/>
<stop offset="0.7536" stop-color="#2F6D8C"/>
<stop offset="0.8027" stop-color="#2D5468"/>
<stop offset="0.8512" stop-color="#2A373D"/>
<stop offset="0.8708" stop-color="#292929"/>
</radialGradient>
<radialGradient id="paint10_radial_460_1557" cx="0" cy="0" r="1" gradientUnits="userSpaceOnUse" gradientTransform="translate(14.2902 16.2998) scale(36.0806 36.0806)">
<stop stop-color="#E6E6E6"/>
<stop offset="0.1045" stop-color="#D6D6D6"/>
<stop offset="0.3074" stop-color="#ADADAD"/>
<stop offset="0.5884" stop-color="#6C6C6C"/>
<stop offset="0.9335" stop-color="#121212"/>
<stop offset="1"/>
</radialGradient>
<linearGradient id="paint11_linear_460_1557" x1="35.2721" y1="7.2908" x2="70.4578" y2="41.2917" gradientUnits="userSpaceOnUse">
<stop stop-color="#F0F4FF"/>
<stop offset="0.1086" stop-color="#EBEFF9"/>
<stop offset="0.2475" stop-color="#DCE0EA"/>
<stop offset="0.4028" stop-color="#C4C7CF"/>
<stop offset="0.5701" stop-color="#A2A4AB"/>
<stop offset="0.7469" stop-color="#76777C"/>
<stop offset="0.9291" stop-color="#414243"/>
<stop offset="1" stop-color="#2B2B2B"/>
</linearGradient>
<linearGradient id="paint12_linear_460_1557" x1="6.71275" y1="35.9972" x2="41.8991" y2="69.9988" gradientUnits="userSpaceOnUse">
<stop stop-color="#F0F4FF"/>
<stop offset="0.1086" stop-color="#EBEFF9"/>
<stop offset="0.2475" stop-color="#DCE0EA"/>
<stop offset="0.4028" stop-color="#C4C7CF"/>
<stop offset="0.5701" stop-color="#A2A4AB"/>
<stop offset="0.7469" stop-color="#76777C"/>
<stop offset="0.9291" stop-color="#414243"/>
<stop offset="1" stop-color="#2B2B2B"/>
</linearGradient>
<linearGradient id="paint13_linear_460_1557" x1="23.7351" y1="23.8728" x2="41.9805" y2="41.5039" gradientUnits="userSpaceOnUse">
<stop stop-color="#C2D7E8"/>
<stop offset="0.1337" stop-color="#BACFE1"/>
<stop offset="0.3425" stop-color="#A4BACD"/>
<stop offset="0.6001" stop-color="#8098AC"/>
<stop offset="0.894" stop-color="#4E697F"/>
<stop offset="1" stop-color="#3A566D"/>
</linearGradient>
<linearGradient id="paint14_linear_460_1557" x1="14.5974" y1="28.1932" x2="49.4296" y2="61.8525" gradientUnits="userSpaceOnUse">
<stop stop-color="#F0F4FF"/>
<stop offset="0.0973" stop-color="#E8EBF6"/>
<stop offset="0.2568" stop-color="#D1D4DD"/>
<stop offset="0.4587" stop-color="#ABAEB5"/>
<stop offset="0.6951" stop-color="#78797D"/>
<stop offset="0.9578" stop-color="#363637"/>
<stop offset="1" stop-color="#2B2B2B"/>
</linearGradient>
<linearGradient id="paint15_linear_460_1557" x1="40.2709" y1="40.6789" x2="52.4891" y2="52.4857" gradientUnits="userSpaceOnUse">
<stop stop-color="#D9DEF0"/>
<stop offset="0.1229" stop-color="#D4DAEC"/>
<stop offset="0.2629" stop-color="#C7CFE2"/>
<stop offset="0.4114" stop-color="#B0BCD1"/>
<stop offset="0.5657" stop-color="#90A1B8"/>
<stop offset="0.7246" stop-color="#677F99"/>
<stop offset="0.8849" stop-color="#355674"/>
<stop offset="0.9719" stop-color="#173D5D"/>
</linearGradient>
<linearGradient id="paint16_linear_460_1557" x1="27.772" y1="15.4187" x2="62.5665" y2="49.0416" gradientUnits="userSpaceOnUse">
<stop stop-color="#F0F4FF"/>
<stop offset="0.1086" stop-color="#EBEFF9"/>
<stop offset="0.2475" stop-color="#DCE0EA"/>
<stop offset="0.4028" stop-color="#C4C7CF"/>
<stop offset="0.5701" stop-color="#A2A4AB"/>
<stop offset="0.7469" stop-color="#76777C"/>
<stop offset="0.9291" stop-color="#414243"/>
<stop offset="1" stop-color="#2B2B2B"/>
</linearGradient>
<clipPath id="clip0_460_1557">
<rect width="80" height="80" fill="white"/>
</clipPath>
</defs>
</svg>
