<svg width="80" height="80" viewBox="0 0 80 80" fill="none" xmlns="http://www.w3.org/2000/svg">
<path fill-rule="evenodd" clip-rule="evenodd" d="M57.636 6.30898C69.735 12.672 78 25.358 78 39.981C78 54.604 69.735 67.33 57.636 73.654V69.306C62.263 66.538 66.177 62.665 69.025 58.081L57.636 53.458V46.423L70.131 56.185C72.741 51.363 74.204 45.869 74.204 39.98C74.204 27.57 67.56 16.663 57.636 10.655V6.30898ZM40.04 2.00098C46.367 2.00098 52.337 3.54298 57.636 6.30898V10.657C52.772 7.73098 47.078 5.99298 41.068 5.79498L45.417 36.899L57.636 46.424V53.459L39.96 46.305L22.403 53.498V46.502L34.701 36.898L39.011 5.79398C32.921 5.99198 27.267 7.73098 22.403 10.655V6.30898C27.663 3.54298 33.673 2.00098 40.04 2.00098ZM57.636 73.654C52.337 76.42 46.366 78 40.04 78C33.674 78 27.664 76.42 22.404 73.693V69.306C27.545 72.427 33.594 74.206 40.04 74.206C46.446 74.206 52.457 72.427 57.636 69.306V73.654ZM22.404 73.693C10.264 67.33 2 54.604 2 39.981C2 25.358 10.264 12.672 22.404 6.30898V10.657C12.439 16.664 5.796 27.532 5.796 39.981C5.796 45.869 7.299 51.443 9.909 56.264L22.404 46.502V53.498L11.055 58.16C13.902 62.707 17.777 66.539 22.404 69.306V73.693Z" fill="#4D4D4D"/>
</svg>
