<svg width="41" height="40" viewBox="0 0 41 40" fill="none" xmlns="http://www.w3.org/2000/svg">
<path fill-rule="evenodd" clip-rule="evenodd" d="M29.8441 2.36591C36.1418 5.67795 40.4439 12.2812 40.4439 19.8927C40.4439 27.5042 36.1418 34.1283 29.8441 37.42V35.1568C32.2525 33.716 34.2898 31.7 35.7723 29.314L29.8441 26.9077V23.2458L36.3479 28.3271C37.7065 25.8172 38.468 22.9575 38.468 19.8922C38.468 13.4326 35.0097 7.75532 29.8441 4.62807V2.36591ZM20.6852 0.123535C23.9784 0.123535 27.0859 0.926169 29.8441 2.36591V4.62911C27.3123 3.10609 24.3485 2.20143 21.2202 2.09837L23.484 18.2885L29.8441 23.2464V26.9082L20.6435 23.1844L11.5048 26.9285V23.287L17.9061 18.2879L20.1495 2.09785C16.9796 2.20091 14.0366 3.10608 11.5048 4.62807V2.36591C14.2427 0.926169 17.371 0.123535 20.6852 0.123535ZM29.8441 37.42C27.0859 38.8597 23.9779 39.6821 20.6852 39.6821C17.3716 39.6821 14.2433 38.8597 11.5054 37.4403V35.1568C14.1813 36.7813 17.3299 37.7073 20.6852 37.7073C24.0196 37.7073 27.1484 36.7813 29.8441 35.1568V37.42ZM11.5054 37.4403C5.1863 34.1283 0.884766 27.5042 0.884766 19.8927C0.884766 12.2812 5.1863 5.67795 11.5054 2.36591V4.62911C6.31842 7.75584 2.86064 13.4128 2.86064 19.8927C2.86064 22.9575 3.64297 25.8588 5.00152 28.3682L11.5054 23.287V26.9285L5.59803 29.3551C7.07993 31.7219 9.09693 33.7165 11.5054 35.1568V37.4403Z" fill="#4D4D4D"/>
</svg>
