<svg width="80" height="67" viewBox="0 0 80 67" fill="none" xmlns="http://www.w3.org/2000/svg">
<g clip-path="url(#clip0_460_1620)">
<path d="M46.6199 36.1432C46.5564 36.159 46.3024 36.159 46.1913 36.159H38.0008V38.0638H46.3342C46.3976 38.0638 46.8897 38.0638 46.985 38.0479C48.6834 37.8892 49.4612 36.4765 49.4612 35.2384C49.4612 33.9686 48.6516 32.6035 47.1119 32.4606C46.8103 32.4289 46.5564 32.4289 46.4453 32.4289H41.0008C40.7627 32.4289 40.4929 32.413 40.3976 32.3812C39.9691 32.2701 39.8103 31.8892 39.8103 31.5717C39.8103 31.286 39.9691 30.905 40.4135 30.7781C40.5405 30.7463 40.6833 30.7304 40.9849 30.7304H48.8421V28.8574H40.8579C40.5246 28.8574 40.2706 28.8733 40.0643 28.905C38.6992 29.0955 37.7468 30.1908 37.7468 31.5876C37.7468 32.7305 38.4611 34.0638 40.0325 34.286C40.3183 34.3178 40.7151 34.3178 40.8897 34.3178H46.1913C46.2865 34.3178 46.5246 34.3178 46.5723 34.3336C47.1754 34.413 47.3818 34.8574 47.3818 35.2543C47.3818 35.6352 47.1437 36.0479 46.6199 36.1432Z" fill="black"/>
<path d="M31.0959 36.1432C31.0325 36.159 30.7785 36.159 30.6832 36.159H22.4769V38.0638H30.8102C30.8737 38.0638 31.3658 38.0638 31.461 38.0479C33.1594 37.8892 33.9372 36.4765 33.9372 35.2384C33.9372 33.9686 33.1277 32.6035 31.588 32.4606C31.2864 32.4289 31.0325 32.4289 30.9213 32.4289H25.4769C25.2388 32.4289 24.9689 32.413 24.8737 32.3812C24.4451 32.2701 24.2864 31.8892 24.2864 31.5717C24.2864 31.286 24.4451 30.905 24.8896 30.7781C25.0166 30.7463 25.1594 30.7304 25.461 30.7304H33.3182V28.8574H25.334C25.0007 28.8574 24.7467 28.8733 24.5404 28.905C23.1753 29.0955 22.2229 30.1908 22.2229 31.5876C22.2229 32.7305 22.9372 34.0638 24.5086 34.286C24.7943 34.3178 25.1912 34.3178 25.3658 34.3178H30.6674C30.7626 34.3178 31.0007 34.3178 31.0483 34.3336C31.6515 34.413 31.8579 34.8574 31.8579 35.2543C31.8579 35.6352 31.6356 36.0479 31.0959 36.1432Z" fill="black"/>
<path d="M18.2071 28.7939H16.1436V38.1114H18.2071V28.7939Z" fill="black"/>
<path d="M11.588 38.1114V28.7939H9.52446V35.7464L2.65141 28.7939H0.000610352V38.1114H2.06411V31.1273L8.98477 38.1114H11.588Z" fill="black"/>
<path d="M77.9533 28.7939V35.7464L71.0802 28.7939H68.4294V38.1114H70.4929V31.1273L77.3977 38.1114H80.0009V28.7939H77.9533Z" fill="black"/>
<path d="M57.6833 28.7939L51.8738 38.1114H54.3817L55.4135 36.4448H62.1913L63.223 38.1114H65.7151L59.9056 28.7939H57.6833ZM61.1278 34.6829H56.477L58.8103 30.9368L61.1278 34.6829Z" fill="black"/>
<path d="M11.4769 23.508C15.6356 11.3651 27.096 3.20636 40.0167 3.20636C52.9373 3.20636 64.4136 11.3651 68.5565 23.508L68.5882 23.6033H77.6835V22.508L73.9057 22.0636C71.5723 21.7937 71.0803 20.762 70.4454 19.4604L70.2866 19.1429C64.8263 7.52384 52.9373 0 40.0167 0C27.0801 0 15.207 7.52384 9.74671 19.1747L9.58798 19.4921C8.95305 20.7937 8.46099 21.8255 6.12765 22.0953L2.34985 22.5398V23.635H11.4293L11.4769 23.508Z" fill="black"/>
<path d="M68.5882 43.3176L68.5564 43.4129C64.3977 55.5558 52.9373 63.6987 40.0167 63.6987C27.096 63.6987 15.6197 55.5399 11.4769 43.397L11.4451 43.3018H2.36572V44.397L6.14351 44.8414C8.47686 45.1113 8.96892 46.143 9.60385 47.4446L9.76258 47.7621C15.2229 59.4129 27.1118 66.9368 40.0325 66.9368C52.9532 66.9368 64.8421 59.4129 70.3025 47.778L70.4612 47.4605C71.0961 46.1589 71.5882 45.1272 73.9216 44.8573L77.6993 44.4129V43.3176H68.5882Z" fill="black"/>
</g>
<defs>
<clipPath id="clip0_460_1620">
<rect width="80" height="66.9368" fill="white"/>
</clipPath>
</defs>
</svg>
