<svg width="42" height="36" viewBox="0 0 42 36" fill="none" xmlns="http://www.w3.org/2000/svg">
<path d="M24.2665 19.4974C24.2335 19.5057 24.1013 19.5057 24.0434 19.5057H19.7801V20.4971H24.1178C24.1508 20.4971 24.407 20.4971 24.4565 20.4889C25.3406 20.4063 25.7454 19.6709 25.7454 19.0265C25.7454 18.3655 25.3241 17.655 24.5226 17.5806C24.3656 17.5641 24.2335 17.5641 24.1756 17.5641H21.3417C21.2178 17.5641 21.0773 17.5558 21.0277 17.5393C20.8047 17.4814 20.722 17.2832 20.722 17.1179C20.722 16.9692 20.8047 16.7709 21.036 16.7048C21.1021 16.6883 21.1765 16.68 21.3334 16.68H25.4232V15.7051H21.2673C21.0938 15.7051 20.9616 15.7133 20.8542 15.7299C20.1437 15.829 19.6479 16.3991 19.6479 17.1262C19.6479 17.721 20.0197 18.4151 20.8377 18.5307C20.9864 18.5473 21.193 18.5473 21.2839 18.5473H24.0434C24.093 18.5473 24.2169 18.5473 24.2417 18.5555C24.5557 18.5968 24.6631 18.8282 24.6631 19.0347C24.6631 19.233 24.5392 19.4478 24.2665 19.4974Z" fill="black"/>
<path d="M16.1859 19.4974C16.1529 19.5057 16.0207 19.5057 15.9711 19.5057H11.6996V20.4971H16.0372C16.0703 20.4971 16.3264 20.4971 16.376 20.4889C17.26 20.4063 17.6649 19.6709 17.6649 19.0265C17.6649 18.3655 17.2435 17.655 16.4421 17.5806C16.2851 17.5641 16.1529 17.5641 16.0951 17.5641H13.2611C13.1372 17.5641 12.9967 17.5558 12.9472 17.5393C12.7241 17.4814 12.6415 17.2832 12.6415 17.1179C12.6415 16.9692 12.7241 16.7709 12.9554 16.7048C13.0215 16.6883 13.0959 16.68 13.2529 16.68H17.3426V15.7051H13.1868C13.0133 15.7051 12.8811 15.7133 12.7737 15.7299C12.0631 15.829 11.5674 16.3991 11.5674 17.1262C11.5674 17.721 11.9392 18.4151 12.7571 18.5307C12.9059 18.5473 13.1124 18.5473 13.2033 18.5473H15.9629C16.0124 18.5473 16.1364 18.5473 16.1612 18.5555C16.4751 18.5968 16.5825 18.8282 16.5825 19.0347C16.5825 19.233 16.4668 19.4478 16.1859 19.4974V19.4974Z" fill="black"/>
<path d="M9.4774 15.6724H8.40332V20.5223H9.4774V15.6724Z" fill="black"/>
<path d="M6.03187 20.5223V15.6724H4.95779V19.2912L1.38027 15.6724H0.000488281V20.5223H1.07457V16.8869L4.67688 20.5223H6.03187Z" fill="black"/>
<path d="M40.576 15.6724V19.2912L36.9984 15.6724H35.6187V20.5223H36.6927V16.8869L40.2868 20.5223H41.6418V15.6724H40.576Z" fill="black"/>
<path d="M30.0254 15.6724L27.0015 20.5223H28.3069L28.8439 19.6547H32.3719L32.9089 20.5223H34.2061L31.1821 15.6724H30.0254ZM31.8183 18.7376H29.3975L30.612 16.7878L31.8183 18.7376Z" fill="black"/>
<path d="M5.97389 12.9208C8.13858 6.60029 14.1039 2.35353 20.8293 2.35353C27.5547 2.35353 33.5282 6.60029 35.6847 12.9208L35.7012 12.9704H40.4354V12.4003L38.469 12.169C37.2545 12.0285 36.9984 11.4915 36.6679 10.814L36.5852 10.6488C33.7431 4.60084 27.5547 0.68457 20.8293 0.68457C14.0956 0.68457 7.9155 4.60084 5.07332 10.6653L4.9907 10.8305C4.66021 11.508 4.40408 12.0451 3.18954 12.1855L1.22314 12.4169V12.9869H5.94911L5.97389 12.9208Z" fill="black"/>
<path d="M35.7012 23.2319L35.6847 23.2815C33.52 29.602 27.5547 33.8405 20.8293 33.8405C14.1039 33.8405 8.13036 29.5938 5.97393 23.2732L5.95741 23.2236H1.23145V23.7937L3.19784 24.0251C4.41238 24.1655 4.66851 24.7026 4.999 25.3801L5.08162 25.5453C7.9238 31.6097 14.1122 35.526 20.8376 35.526C27.563 35.526 33.7514 31.6097 36.5935 25.5536L36.6762 25.3883C37.0067 24.7108 37.2628 24.1738 38.4773 24.0333L40.4437 23.802V23.2319H35.7012Z" fill="black"/>
</svg>
