<svg width="80" height="54" viewBox="0 0 80 54" fill="none" xmlns="http://www.w3.org/2000/svg">
<g clip-path="url(#clip0_460_1603)">
<path d="M57.5717 24.8271C57.5717 24.8271 54.2749 25.7797 47.8978 29.6985C42.1808 33.2177 39.9389 35.582 39.9389 35.582L22.3014 23.3927C22.3014 23.3927 29.7215 17.9362 35.9214 22.1154L44.2383 27.8206L45.2528 27.1534L22.305 11.0762C22.305 11.0762 25.6029 10.1224 31.9765 6.20595C37.6971 2.68558 39.9389 0.320034 39.9389 0.320034L57.5753 12.5093C57.5753 12.5093 50.1563 17.9659 43.9552 13.7866L35.6384 8.08031L34.6239 8.74633L57.5717 24.8271Z" fill="#E20A17"/>
<path d="M43.9119 41.4552H30.4881V44.4404H36.9723L30.2598 50.7069V53.208H43.8869V50.2109H37.1067L43.9119 43.9599V41.4552Z" fill="#003399"/>
<path d="M22.5844 53.5088C27.953 53.5088 29.3278 52.1375 29.3278 49.1143V41.4551H25.0748V48.6564C25.0748 49.8659 24.0401 50.5866 22.5844 50.5866C21.0704 50.5866 20.0964 49.8623 20.0964 48.6374V41.4551H15.8434V49.1143C15.8434 52.1375 17.2182 53.5088 22.5844 53.5088Z" fill="#003399"/>
<path d="M51.7051 53.5088C57.0737 53.5088 58.4485 52.1375 58.4485 49.1143V41.4551H54.1943V48.6564C54.1943 49.8659 53.1584 50.5866 51.7051 50.5866C50.1911 50.5866 49.2135 49.8623 49.2135 48.6374V41.4551H44.9617V49.1143C44.9617 52.1375 46.3365 53.5088 51.7051 53.5088Z" fill="#003399"/>
<path d="M79.6799 41.4551H75.245V53.2079H79.6799V41.4551Z" fill="#003399"/>
<path d="M74.5693 41.4552H68.7345L64.0129 45.5108V41.4552H59.5768V53.208H64.0129V49.0395L68.3979 53.208H74.3564L67.8711 47.1782L74.5693 41.4552Z" fill="#003399"/>
<path d="M5.36026 44.7023C5.36026 43.7937 6.70657 43.764 7.16088 43.764C7.61639 43.764 8.64277 43.9459 9.3409 45.0913H14.3562C14.3562 42.8768 12.2571 41.1154 7.17635 41.1154C1.53305 41.1154 0.572081 43.5915 0.572081 45.014C0.572081 47.6364 2.60343 48.4047 7.02055 48.8757C7.39875 48.9149 9.6965 48.8067 9.6965 49.9115C9.6965 50.7298 8.40491 50.7845 7.92918 50.7845C7.45702 50.7845 6.57336 50.7072 5.84312 49.4073H0.319946C0.319946 51.9881 2.05991 53.4795 7.92086 53.4795C13.3192 53.4795 14.7523 51.2757 14.7523 49.5999C14.7523 47.973 13.6355 46.3174 9.03287 45.7287C7.11331 45.4802 5.36026 45.3755 5.36026 44.7023Z" fill="#003399"/>
</g>
<defs>
<clipPath id="clip0_460_1603">
<rect width="80" height="53.8288" fill="white"/>
</clipPath>
</defs>
</svg>
