<svg width="43" height="29" viewBox="0 0 43 29" fill="none" xmlns="http://www.w3.org/2000/svg">
<g clip-path="url(#clip0_462_2836)">
<path d="M30.5941 13.5664C30.5941 13.5664 28.8781 14.0623 25.5587 16.1021C22.5829 17.9339 21.416 19.1646 21.416 19.1646L12.2354 12.8198C12.2354 12.8198 16.0976 9.97962 19.3248 12.155L23.6538 15.1246L24.1819 14.7773L12.2372 6.4089C12.2372 6.4089 13.9539 5.91242 17.2714 3.87386C20.249 2.04146 21.416 0.810156 21.416 0.810156L30.5959 7.15486C30.5959 7.15486 26.7343 9.99509 23.5065 7.81973L19.1774 4.8495L18.6494 5.19617L30.5941 13.5664Z" fill="#E20A17"/>
<path d="M23.4841 22.2218H16.4968V23.7757H19.8719L16.3779 27.0375V28.3394H23.4711V26.7793H19.9418L23.4841 23.5256V22.2218Z" fill="#003399"/>
<path d="M12.3828 28.4956C15.1773 28.4956 15.8929 27.7818 15.8929 26.2082V22.2215H13.6791V25.9699C13.6791 26.5994 13.1406 26.9746 12.3828 26.9746C11.5948 26.9746 11.0878 26.5976 11.0878 25.96V22.2215H8.87402V26.2082C8.87402 27.7818 9.58965 28.4956 12.3828 28.4956Z" fill="#003399"/>
<path d="M27.5408 28.4956C30.3352 28.4956 31.0509 27.7818 31.0509 26.2082V22.2215H28.8365V25.9699C28.8365 26.5994 28.2973 26.9746 27.5408 26.9746C26.7528 26.9746 26.2439 26.5976 26.2439 25.96V22.2215H24.0308V26.2082C24.0308 27.7818 24.7464 28.4956 27.5408 28.4956Z" fill="#003399"/>
<path d="M42.1019 22.2217H39.7935V28.3392H42.1019V22.2217Z" fill="#003399"/>
<path d="M39.442 22.2218H36.4049L33.9473 24.3328V22.2218H31.6382V28.3394H33.9473V26.1696L36.2297 28.3394H39.3312L35.9555 25.2007L39.442 22.2218Z" fill="#003399"/>
<path d="M3.4175 23.9118C3.4175 23.4389 4.11828 23.4234 4.35476 23.4234C4.59185 23.4234 5.1261 23.5181 5.48948 24.1143H8.10004C8.10004 22.9616 7.00741 22.0448 4.3628 22.0448C1.42538 22.0448 0.925185 23.3336 0.925185 24.074C0.925185 25.439 1.98253 25.839 4.28171 26.0841C4.47857 26.1045 5.67458 26.0482 5.67458 26.6233C5.67458 27.0492 5.00229 27.0777 4.75467 27.0777C4.5089 27.0777 4.04894 27.0374 3.66884 26.3608H0.793945C0.793945 27.7042 1.69962 28.4805 4.75033 28.4805C7.56023 28.4805 8.30619 27.3334 8.30619 26.4611C8.30619 25.6142 7.7249 24.7525 5.32915 24.4461C4.32999 24.3167 3.4175 24.2622 3.4175 23.9118Z" fill="#003399"/>
</g>
<defs>
<clipPath id="clip0_462_2836">
<rect width="41.6412" height="28.0187" fill="white" transform="translate(0.627441 0.643555)"/>
</clipPath>
</defs>
</svg>
