<svg width="42" height="27" viewBox="0 0 42 27" fill="none" xmlns="http://www.w3.org/2000/svg">
<path d="M21.006 0C9.61436 0 0.37793 5.97508 0.37793 13.3436C0.37793 20.7149 9.61436 26.6927 21.006 26.6927C32.3977 26.6927 41.6342 20.7176 41.6342 13.3436C41.6342 5.96966 32.3977 0 21.006 0ZM21.006 20.9643C19.3117 20.9643 17.929 17.627 17.8423 13.4277C18.8616 13.5171 19.9216 13.5659 21.006 13.5659C22.0904 13.5659 23.1505 13.5171 24.1698 13.4277C24.083 17.6243 22.7004 20.9643 21.006 20.9643ZM18.051 10.0931C18.5119 7.12455 19.6614 5.01809 21.006 5.01809C22.3507 5.01809 23.5002 7.12455 23.9611 10.0931C23.0149 10.1772 22.0281 10.2232 21.006 10.2232C19.984 10.2232 18.9972 10.1772 18.051 10.0931ZM21.006 1.93024C18.7939 1.93024 16.907 5.2431 16.2103 9.86809C12.0163 9.21474 9.08842 7.72368 9.08842 5.99134C9.08842 3.65445 14.4237 1.75945 21.006 1.75945C27.5884 1.75945 32.9237 3.65445 32.9237 5.99134C32.9237 7.72368 29.9958 9.21474 25.8018 9.86809C25.1051 5.2431 23.2182 1.93024 21.006 1.93024ZM3.33565 12.8448C3.33565 10.5838 4.20588 8.46108 5.72134 6.63928C5.70507 6.76669 5.69423 6.89682 5.69423 7.02695C5.69423 9.87623 9.96679 12.3053 15.9283 13.1999C15.9229 13.406 15.9229 13.6147 15.9229 13.8235C15.9229 19.1343 17.4112 23.6319 19.4689 25.1582C10.4277 24.6133 3.33565 19.3078 3.33565 12.8448ZM22.5432 25.1582C24.6008 23.6319 26.0892 19.1343 26.0892 13.8235C26.0892 13.612 26.0865 13.406 26.0838 13.1999C32.0426 12.3053 36.3179 9.87894 36.3179 7.02695C36.3179 6.89682 36.307 6.76669 36.2907 6.63928C37.8062 8.4665 38.6764 10.5838 38.6764 12.8448C38.6764 19.3078 31.5844 24.6133 22.5432 25.1582Z" fill="#282830"/>
</svg>
