<svg width="80" height="52" viewBox="0 0 80 52" fill="none" xmlns="http://www.w3.org/2000/svg">
<g clip-path="url(#clip0_460_1618)">
<path d="M40 0.359375C18.1145 0.359375 0.369751 11.8385 0.369751 25.9948C0.369751 40.1562 18.1145 51.6406 40 51.6406C61.8854 51.6406 79.6302 40.1615 79.6302 25.9948C79.6302 11.8281 61.8854 0.359375 40 0.359375ZM40 40.6354C36.7448 40.6354 34.0885 34.224 33.9218 26.1562C35.8802 26.3281 37.9166 26.4219 40 26.4219C42.0833 26.4219 44.1197 26.3281 46.0781 26.1562C45.9114 34.2188 43.2552 40.6354 40 40.6354ZM34.3229 19.75C35.2083 14.0469 37.4166 10 40 10C42.5833 10 44.7916 14.0469 45.677 19.75C43.8593 19.9115 41.9635 20 40 20C38.0364 20 36.1406 19.9115 34.3229 19.75ZM40 4.06771C35.75 4.06771 32.125 10.4323 30.7864 19.3177C22.7291 18.0625 17.1041 15.1979 17.1041 11.8698C17.1041 7.38021 27.3541 3.73958 40 3.73958C52.6458 3.73958 62.8958 7.38021 62.8958 11.8698C62.8958 15.1979 57.2708 18.0625 49.2135 19.3177C47.875 10.4323 44.25 4.06771 40 4.06771ZM6.05204 25.0365C6.05204 20.6927 7.72392 16.6146 10.6354 13.1146C10.6041 13.3594 10.5833 13.6094 10.5833 13.8594C10.5833 19.3333 18.7916 24 30.2447 25.7188C30.2343 26.1146 30.2343 26.5156 30.2343 26.9167C30.2343 37.1198 33.0937 45.7604 37.0468 48.6927C19.677 47.6458 6.05204 37.4531 6.05204 25.0365ZM42.9531 48.6927C46.9062 45.7604 49.7656 37.1198 49.7656 26.9167C49.7656 26.5104 49.7604 26.1146 49.7552 25.7188C61.2031 24 69.4166 19.3385 69.4166 13.8594C69.4166 13.6094 69.3958 13.3594 69.3645 13.1146C72.276 16.625 73.9479 20.6927 73.9479 25.0365C73.9479 37.4531 60.3229 47.6458 42.9531 48.6927Z" fill="#282830"/>
</g>
<defs>
<clipPath id="clip0_460_1618">
<rect width="80" height="52" fill="white"/>
</clipPath>
</defs>
</svg>
