<svg width="42" height="42" viewBox="0 0 42 42" fill="none" xmlns="http://www.w3.org/2000/svg">
<path d="M20.9193 8.33154C24.4184 8.33154 27.5288 9.75706 29.797 12.0251C32.1301 14.2932 33.4906 17.4682 33.4906 20.9679C33.4906 24.4021 32.1301 27.5773 29.797 29.8454C27.529 32.1134 24.4184 33.5391 20.9193 33.5391C17.4199 33.5391 14.3095 32.1136 11.9768 29.8454C9.70872 27.5773 8.2832 24.4023 8.2832 20.9679C8.2832 17.4684 9.70872 14.2934 11.9768 12.0251C14.3095 9.75706 17.4199 8.33154 20.9193 8.33154ZM20.9193 8.52567C17.4849 8.52567 14.3745 9.95119 12.1709 12.1548C9.90285 14.4227 8.47733 17.5333 8.47733 20.9677C8.47733 24.4019 9.90285 27.5125 12.1709 29.7155C14.3743 31.9835 17.4849 33.3446 20.9193 33.3446C24.3535 33.3446 27.4643 31.9837 29.6671 29.7155C31.9352 27.5125 33.2963 24.4019 33.2963 20.9677C33.2963 17.5333 31.9352 14.4227 29.6671 12.1548C27.4643 9.95138 24.3535 8.52567 20.9193 8.52567Z" fill="#C5C5C1"/>
<path d="M20.9192 1.65674C25.3256 1.65674 29.4085 3.1469 32.6479 5.60968L34.7861 3.4713L38.5449 7.22952L36.4066 9.43293C38.8043 12.6732 40.1648 16.6256 40.1648 20.9025C40.1648 31.5299 31.5464 40.2133 20.919 40.2133C10.2916 40.2133 1.67285 31.5299 1.67285 20.9025C1.67305 10.2755 10.2918 1.65674 20.9192 1.65674ZM20.9192 6.19285C12.819 6.19285 6.20916 12.8023 6.20916 20.9025C6.20916 29.0677 12.819 35.6126 20.9192 35.6126C29.0194 35.6126 35.6289 29.0677 35.6289 20.9025C35.6289 12.8023 29.0194 6.19285 20.9192 6.19285Z" fill="url(#paint0_radial_462_2814)"/>
<path d="M20.9196 6.12793C25.0022 6.12793 28.6958 7.74817 31.4174 10.4697C34.0739 13.1266 35.7589 16.8202 35.7589 20.9675C35.7589 25.0501 34.0741 28.7433 31.4174 31.4652C28.6956 34.1217 25.002 35.8068 20.9196 35.8068C16.837 35.8068 13.0788 34.1219 10.4219 31.4652C7.76496 28.7431 6.08008 25.0499 6.08008 20.9675C6.08008 16.8202 7.76496 13.1266 10.4219 10.4697C13.0788 7.74817 16.837 6.12793 20.9196 6.12793ZM20.9196 6.32265C16.902 6.32265 13.2083 7.94249 10.5514 10.5994C7.89444 13.2559 6.2744 16.885 6.2744 20.9677C6.2744 24.9852 7.89425 28.6788 10.5514 31.3357C13.2083 33.9276 16.902 35.6125 20.9196 35.6125C24.9372 35.6125 28.6308 33.9276 31.2879 31.3357C33.9442 28.6788 35.5646 24.9852 35.5646 20.9677C35.5646 16.885 33.9442 13.2559 31.2879 10.5994C28.6308 7.94249 24.9372 6.32265 20.9196 6.32265Z" fill="url(#paint1_linear_462_2814)"/>
<path d="M20.9196 1.52686C25.326 1.52686 29.4733 3.01721 32.7136 5.54444L32.6485 5.60948C29.4088 3.1467 25.326 1.65654 20.9198 1.65654C10.2924 1.65654 1.67363 10.2753 1.67363 20.9023C1.67363 31.5297 10.2924 40.2131 20.9198 40.2131C31.5472 40.2131 40.1656 31.5297 40.1656 20.9023C40.1656 16.6256 38.8051 12.673 36.4073 9.43273L36.472 9.36769C38.8697 12.608 40.2952 16.5607 40.2952 20.9023C40.2952 26.2808 38.0922 31.1409 34.5928 34.6401C31.0933 38.1396 26.2982 40.2781 20.9198 40.2781C15.6058 40.2781 10.7459 38.1398 7.24681 34.6401C3.74736 31.076 1.54395 26.2808 1.54395 20.9023C1.54395 15.5887 3.74736 10.7288 7.24681 7.22932C10.7457 3.72987 15.5409 1.52686 20.9196 1.52686Z" fill="url(#paint2_radial_462_2814)"/>
<path d="M20.9195 6.25732C29.0197 6.25732 35.6292 12.8023 35.6292 20.9676C35.6292 29.0678 29.0197 35.6772 20.9195 35.6772C12.8193 35.6772 6.20947 29.0678 6.20947 20.9676C6.20947 12.8021 12.8193 6.25732 20.9195 6.25732ZM20.9195 8.33125C13.9857 8.33125 8.34785 13.9691 8.34785 20.9676C8.34785 27.9014 13.9857 33.5386 20.9195 33.5386C27.8534 33.5386 33.4906 27.9012 33.4906 20.9676C33.4906 13.9689 27.8534 8.33125 20.9195 8.33125Z" fill="url(#paint3_radial_462_2814)"/>
<path opacity="0.67" d="M8.98242 24.8896H2.0918C2.26173 25.6993 2.4973 26.4831 2.76579 27.2523H10.0472C9.61577 26.5085 9.25587 25.7195 8.98242 24.8896Z" fill="url(#paint4_linear_462_2814)"/>
<path opacity="0.86" d="M32.8656 24.8896H39.7564C39.5863 25.6993 39.3507 26.4831 39.0822 27.2523H31.8008C32.2325 26.5085 32.5924 25.7195 32.8656 24.8896Z" fill="url(#paint5_linear_462_2814)"/>
<path d="M40.1003 16.0425C40.5538 17.5979 40.7482 19.2177 40.7482 20.9026C40.7482 22.6525 40.4892 24.3374 40.1003 25.9572H1.80273V25.8922H40.0355C40.4894 24.2724 40.6837 22.5875 40.6837 20.838C40.6835 19.1531 40.4892 17.5332 40.1003 16.0425Z" fill="#1A171B"/>
<path d="M1.73855 15.978H40.101C40.4898 17.5332 40.684 19.1531 40.684 20.838C40.684 22.5875 40.4898 24.2724 40.0358 25.8922H1.80319C1.3495 24.2724 1.09033 22.5875 1.09033 20.838C1.09033 19.1531 1.3495 17.5332 1.73855 15.978Z" fill="url(#paint6_radial_462_2814)"/>
<path d="M35.5644 2.17529L39.8413 6.45224L36.6661 9.62728L36.8604 9.88645L34.5924 11.7012L33.8793 11.9604L38.5453 7.22954L34.7865 3.47133L30.1211 8.13712L30.3156 7.48891L35.5644 2.17529Z" fill="url(#paint7_linear_462_2814)"/>
<path d="M31.2876 1.72119C35.0458 3.73008 38.0916 6.84048 40.1651 10.5341V1.72119H31.2876Z" fill="url(#paint8_radial_462_2814)"/>
<path d="M31.2876 1.72119C35.0458 3.73008 38.0916 6.84048 40.1651 10.5341" stroke="#B1B0A8" stroke-width="0.3402" stroke-linecap="round"/>
<path d="M31.2876 1.72119C34.9812 3.73008 38.0916 6.84048 40.1005 10.5341" stroke="#CBCAC4" stroke-width="0.2361" stroke-linecap="round"/>
<path d="M31.2227 1.72119C34.9813 3.73008 38.0266 6.84048 40.1006 10.5991" stroke="#E6E6E1" stroke-width="0.1324" stroke-linecap="round"/>
<path d="M31.2227 1.72119C34.9162 3.79512 38.0266 6.84048 40.0355 10.5991" stroke="white" stroke-width="0.0283" stroke-linecap="round"/>
<path d="M40.1654 1.52686C40.2304 1.52686 40.2951 1.5915 40.2951 1.72098H31.2879H31.1582C31.1582 1.5915 31.2228 1.52686 31.2879 1.52686H40.1654Z" fill="url(#paint9_linear_462_2814)"/>
<path d="M40.2947 10.534C40.2947 10.6637 40.2301 10.7288 40.165 10.7288L40.1006 10.5991V1.52686C40.1006 1.52686 40.1006 1.52686 40.165 1.52686C40.2301 1.52686 40.2947 1.5915 40.2947 1.72098V10.534Z" fill="url(#paint10_linear_462_2814)"/>
<path d="M1.80788 16.0522C1.41903 17.6076 1.15967 19.2275 1.15967 20.9124C1.15967 21.0518 1.20765 21.8775 1.21103 22.0159L1.32346 23.2675C1.32167 23.1663 1.2725 21.1263 1.2725 21.0248C1.2725 19.3399 1.55328 17.7772 1.94213 16.2218L15.5176 16.1647L21.3769 16.0522H1.80788Z" fill="url(#paint11_linear_462_2814)"/>
<path d="M34.7864 23.3061C33.0684 23.3061 31.6705 22.257 31.6705 20.9675C31.6705 19.6776 33.0684 18.6284 34.7864 18.6284C36.5409 18.6284 37.9682 19.6778 37.9682 20.9675C37.968 22.257 36.5407 23.3061 34.7864 23.3061ZM34.7864 19.2885C34.1519 19.2885 33.6914 19.9946 33.6914 20.9675C33.6914 21.8875 34.1622 22.5814 34.7864 22.5814C35.3805 22.5814 35.8822 21.8423 35.8822 20.9675C35.8822 20.0416 35.3906 19.2885 34.7864 19.2885ZM15.0872 23.3061C13.3688 23.3061 11.9708 22.257 11.9708 20.9675C11.9708 19.7347 13.3979 18.6935 15.0872 18.6935C16.8412 18.6935 18.2681 19.7137 18.2681 20.9675C18.2681 22.257 16.8412 23.3061 15.0872 23.3061ZM15.0872 19.353C14.4625 19.353 13.9914 20.047 13.9914 20.9675C13.9914 21.8875 14.4625 22.5814 15.0872 22.5814C15.6812 22.5814 16.1829 21.8423 16.1829 20.9675C16.1831 20.0924 15.6812 19.353 15.0872 19.353ZM26.6218 23.1764L24.6079 19.415L23.5764 19.4182L23.5705 18.8293L27.983 18.8233L27.989 19.4123L26.8811 19.4182L28.4417 22.0662L29.7919 19.4097L29.0195 19.4182L29.0136 18.8293L32.0651 18.8233L32.071 19.4123L31.0282 19.4182L29.0231 23.1766H26.6218V23.1764ZM18.5216 23.1764L18.5156 22.4576L19.5582 22.4517L19.5523 19.4123L18.5216 19.4182L18.5156 18.8293L22.6042 18.8233L22.6101 19.4123L21.5669 19.4182L21.5729 22.4578L22.6686 22.4519C23.023 22.4519 23.9571 22.2201 24.0236 21.1616L24.6773 21.156L24.6833 23.1766H18.5216V23.1764ZM6.92211 23.1764L4.90807 19.415L3.87655 19.4182L3.87061 18.8293L8.28299 18.8233L8.28893 19.4123L7.18128 19.4182L8.74163 22.0662L10.1568 19.4095L9.31965 19.4182L9.3137 18.8293L12.3656 18.8233L12.3716 19.4123L11.3285 19.4182L9.32342 23.1766H6.92211V23.1764Z" fill="white"/>
<path d="M34.7865 18.6342C36.5366 18.6342 37.9623 19.6712 37.9623 20.9675C37.9623 22.2633 36.5368 23.3002 34.7865 23.3002C33.1022 23.3002 31.6765 22.2633 31.6765 20.9675C31.6765 19.6712 33.102 18.6342 34.7865 18.6342ZM34.7865 22.5871C35.3697 22.5871 35.8884 21.8742 35.8884 20.9673C35.8884 19.9952 35.3699 19.2824 34.7865 19.2824C34.1389 19.2824 33.6854 19.9952 33.6854 20.9673C33.6854 21.8742 34.1389 22.5871 34.7865 22.5871ZM15.0872 18.6992C16.8368 18.6992 18.2623 19.7361 18.2623 20.9673C18.2623 22.2631 16.8368 23.3 15.0872 23.3C13.4024 23.3 11.9766 22.2631 11.9766 20.9673C11.9768 19.7359 13.4024 18.6992 15.0872 18.6992ZM15.0872 22.5871C15.6704 22.5871 16.189 21.8742 16.189 20.9673C16.189 20.0603 15.6704 19.3468 15.0872 19.3468C14.439 19.3468 13.9855 20.0603 13.9855 20.9673C13.9855 21.8742 14.439 22.5871 15.0872 22.5871ZM32.065 18.8289V19.4119H31.0281L29.0194 23.1701H26.6217L24.613 19.4119H23.5763V18.8289H27.9829V19.4119H26.881L28.4364 22.0688L29.7969 19.4119H29.0194V18.8289H32.065ZM22.6043 18.8289V19.4119H21.5672V22.4572C21.5672 22.4572 22.2801 22.4572 22.6691 22.4572C23.058 22.4572 23.9649 22.1985 24.03 21.1614C24.5481 21.1614 24.6778 21.1614 24.6778 21.1614V23.1701H19.5583H18.5217V22.4572H19.5583V19.4119H18.5217V18.8289H22.6043ZM12.3657 18.8289V19.4119H11.3286L9.31994 23.1701H6.9222L4.91351 19.4119H3.87664V18.8289H8.28327V19.4119H7.18157L8.73677 22.0688L10.1623 19.4119H9.31974V18.8289H12.3657ZM34.7865 18.6221C33.0651 18.6221 31.6648 19.6742 31.6648 20.9673C31.6648 22.2601 33.0653 23.3117 34.7865 23.3117C36.5442 23.3117 37.974 22.2599 37.974 20.9673C37.974 19.6742 36.5442 18.6221 34.7865 18.6221ZM34.7865 22.5754C34.1655 22.5754 33.6973 21.8842 33.6973 20.9675C33.6973 19.998 34.1555 19.2945 34.7865 19.2945C35.3875 19.2945 35.8765 20.045 35.8765 20.9675C35.8765 21.839 35.3772 22.5754 34.7865 22.5754ZM15.0872 18.6873C13.3946 18.6873 11.9648 19.7315 11.9648 20.9675C11.9648 22.2603 13.3655 23.3119 15.0872 23.3119C16.8445 23.3119 18.2742 22.2601 18.2742 20.9675C18.2744 19.7101 16.8447 18.6873 15.0872 18.6873ZM15.0872 22.5754C14.466 22.5754 13.9974 21.8842 13.9974 20.9675C13.9974 20.0504 14.466 19.3589 15.0872 19.3589C15.678 19.3589 16.1771 20.0956 16.1771 20.9675C16.1771 21.839 15.678 22.5754 15.0872 22.5754ZM32.0769 18.817H32.065H29.0196H29.0077V18.8289V19.4119V19.4238H29.0196H29.7777L28.4356 22.044L26.9018 19.4238H27.9829H27.9948V19.4119V18.8289V18.817H27.9829H23.5763H23.5644V18.8289V19.4119V19.4238H23.5763H24.6058L26.6111 23.1756L26.6145 23.1818H26.6217H29.0194H29.0265L29.0299 23.1756L31.0352 19.4238H32.0648H32.0767V19.4119V18.8289V18.817H32.0769ZM22.6162 18.817H22.6043H18.5217H18.5098V18.8289V19.4119V19.4238H18.5217H19.5464V22.4455H18.5217H18.5098V22.4574V23.1703V23.1822H18.5217H19.5583H24.6776H24.6895V23.1703V21.1616V21.1497H24.6776H24.0298H24.0185L24.0179 21.1608C23.9517 22.2147 23.0217 22.4455 22.6687 22.4455H21.5787V19.4238H22.6041H22.616V19.4119V18.8289V18.817H22.6162ZM12.3776 18.817H12.3657H9.31974H9.30784V18.8289V19.4119V19.4238H9.31974H10.1423L8.73617 22.0446L7.20219 19.424H8.28327H8.29517V19.4121V18.8291V18.8172H8.28327H3.87664H3.86475V18.8291V19.4121V19.424H3.87664H4.90617L6.91169 23.1758L6.91506 23.182H6.9222H9.31994H9.32708L9.33045 23.1758L11.3358 19.4238H12.3657H12.3776V19.4119V18.8289V18.817Z" fill="#1D2D28"/>
<defs>
<radialGradient id="paint0_radial_462_2814" cx="0" cy="0" r="1" gradientUnits="userSpaceOnUse" gradientTransform="translate(7.15819 17.1064) scale(40.1995)">
<stop stop-color="white"/>
<stop offset="0.0469" stop-color="#FCFCFB"/>
<stop offset="0.2247" stop-color="#FAFAF9"/>
<stop offset="0.3719" stop-color="#B9B9B8"/>
<stop offset="0.4972" stop-color="#888887"/>
<stop offset="0.5923" stop-color="#6A6A69"/>
<stop offset="0.6461" stop-color="#5F5F5E"/>
<stop offset="0.7275" stop-color="#555554"/>
<stop offset="0.8673" stop-color="#3A3939"/>
<stop offset="1" stop-color="#1B1919"/>
</radialGradient>
<linearGradient id="paint1_linear_462_2814" x1="13.3234" y1="18.3456" x2="27.7362" y2="23.3083" gradientUnits="userSpaceOnUse">
<stop stop-color="#E2E2DC"/>
<stop offset="1" stop-color="white"/>
</linearGradient>
<radialGradient id="paint2_radial_462_2814" cx="0" cy="0" r="1" gradientUnits="userSpaceOnUse" gradientTransform="translate(32.3587 33.3068) scale(44.1175 44.1175)">
<stop stop-color="#C5C6C2"/>
<stop offset="1" stop-color="#868680"/>
</radialGradient>
<radialGradient id="paint3_radial_462_2814" cx="0" cy="0" r="1" gradientUnits="userSpaceOnUse" gradientTransform="translate(27.8593 27.9072) scale(30.9812 30.9812)">
<stop stop-color="white"/>
<stop offset="0.1986" stop-color="#F2F2F3"/>
<stop offset="0.2978" stop-color="#EAEAEB"/>
<stop offset="0.2992" stop-color="#E9E9EA"/>
<stop offset="0.3715" stop-color="#C3C3C3"/>
<stop offset="0.443" stop-color="#A5A5A5"/>
<stop offset="0.5126" stop-color="#8F8F8F"/>
<stop offset="0.5794" stop-color="#828281"/>
<stop offset="0.6404" stop-color="#7E7E7D"/>
<stop offset="0.7534" stop-color="#545352"/>
<stop offset="0.8551" stop-color="#353333"/>
<stop offset="0.9408" stop-color="#222020"/>
<stop offset="1" stop-color="#1B1919"/>
</radialGradient>
<linearGradient id="paint4_linear_462_2814" x1="6.06948" y1="27.3649" x2="6.06948" y2="25.9775" gradientUnits="userSpaceOnUse">
<stop stop-color="white" stop-opacity="0"/>
<stop offset="0.17" stop-color="#FAFAF9" stop-opacity="0"/>
<stop offset="0.427" stop-color="#BBBBB8" stop-opacity="0.1"/>
<stop offset="0.5232" stop-color="#8F8F8C" stop-opacity="0.2"/>
<stop offset="0.6238" stop-color="#686866" stop-opacity="0.3"/>
<stop offset="0.7234" stop-color="#4A4948" stop-opacity="0.6"/>
<stop offset="0.8206" stop-color="#343432" stop-opacity="0.8"/>
<stop offset="0.9141" stop-color="#272625" stop-opacity="0.9"/>
<stop offset="1" stop-color="#232221"/>
</linearGradient>
<linearGradient id="paint5_linear_462_2814" x1="35.7786" y1="27.3649" x2="35.7786" y2="25.9775" gradientUnits="userSpaceOnUse">
<stop stop-color="white" stop-opacity="0"/>
<stop offset="0.17" stop-color="#FAFAF9" stop-opacity="0"/>
<stop offset="0.427" stop-color="#BBBBB8" stop-opacity="0"/>
<stop offset="0.5232" stop-color="#8F8F8C" stop-opacity="0"/>
<stop offset="0.6238" stop-color="#686866" stop-opacity="0"/>
<stop offset="0.7234" stop-color="#4A4948" stop-opacity="0.25"/>
<stop offset="0.8206" stop-color="#343432" stop-opacity="0.5"/>
<stop offset="0.9141" stop-color="#272625" stop-opacity="0.75"/>
<stop offset="1" stop-color="#232221"/>
</linearGradient>
<radialGradient id="paint6_radial_462_2814" cx="0" cy="0" r="1" gradientUnits="userSpaceOnUse" gradientTransform="translate(2.88503 17.1083) scale(25.0101 25.0101)">
<stop stop-color="#006AB1"/>
<stop offset="0.0016" stop-color="#006AB1"/>
<stop offset="0.1275" stop-color="#0061A4"/>
<stop offset="0.2416" stop-color="#005E9F"/>
<stop offset="0.5062" stop-color="#00548E"/>
<stop offset="0.8371" stop-color="#004374"/>
<stop offset="0.9588" stop-color="#004173"/>
<stop offset="1" stop-color="#003B6F"/>
</radialGradient>
<linearGradient id="paint7_linear_462_2814" x1="39.4619" y1="11.8079" x2="29.7151" y2="2.06102" gradientUnits="userSpaceOnUse">
<stop offset="0.0056" stop-color="#212111"/>
<stop offset="0.6461" stop-color="#41403F"/>
<stop offset="0.6508" stop-color="#454443"/>
<stop offset="0.6558" stop-color="#52514F"/>
<stop offset="0.6608" stop-color="#666564"/>
<stop offset="0.6659" stop-color="#838281"/>
<stop offset="0.6711" stop-color="#A9A8A6"/>
<stop offset="0.6762" stop-color="#D6D5D2"/>
<stop offset="0.68" stop-color="#FDFCF9"/>
<stop offset="0.6826" stop-color="#FAF9F6"/>
<stop offset="0.6842" stop-color="#F2F1EE"/>
<stop offset="0.6856" stop-color="#E3E2DF"/>
<stop offset="0.6869" stop-color="#CECECA"/>
<stop offset="0.688" stop-color="#B3B3AF"/>
<stop offset="0.6891" stop-color="#93938E"/>
<stop offset="0.69" stop-color="#70706B"/>
<stop offset="0.6924" stop-color="#6D6D68"/>
<stop offset="0.7145" stop-color="#535250"/>
<stop offset="0.7396" stop-color="#3E3C3D"/>
<stop offset="0.7692" stop-color="#2E2B2D"/>
<stop offset="0.8059" stop-color="#222023"/>
<stop offset="0.8573" stop-color="#1C191D"/>
<stop offset="1" stop-color="#1A171B"/>
</linearGradient>
<radialGradient id="paint8_radial_462_2814" cx="0" cy="0" r="1" gradientUnits="userSpaceOnUse" gradientTransform="translate(38.6602 2.70724) scale(10.4521)">
<stop stop-color="#555552"/>
<stop offset="1" stop-color="#50504D"/>
</radialGradient>
<linearGradient id="paint9_linear_462_2814" x1="31.1582" y1="1.624" x2="40.2951" y2="1.624" gradientUnits="userSpaceOnUse">
<stop stop-color="#5D5D5F"/>
<stop offset="0.0852" stop-color="#505051"/>
<stop offset="0.2581" stop-color="#3C3C3C"/>
<stop offset="0.4497" stop-color="#2E2D2D"/>
<stop offset="0.6724" stop-color="#262524"/>
<stop offset="1" stop-color="#232221"/>
</linearGradient>
<linearGradient id="paint10_linear_462_2814" x1="40.1975" y1="10.7288" x2="40.1975" y2="1.52688" gradientUnits="userSpaceOnUse">
<stop stop-color="#5D5D5F"/>
<stop offset="0.096" stop-color="#555456"/>
<stop offset="0.4584" stop-color="#393939"/>
<stop offset="0.7723" stop-color="#292827"/>
<stop offset="1" stop-color="#232221"/>
</linearGradient>
<linearGradient id="paint11_linear_462_2814" x1="6.38748" y1="12.9474" x2="12.2379" y2="20.8603" gradientUnits="userSpaceOnUse">
<stop stop-color="white"/>
<stop offset="0.1091" stop-color="#D8E8F3"/>
<stop offset="0.3376" stop-color="#8CBCDC"/>
<stop offset="0.5419" stop-color="#5099C9"/>
<stop offset="0.7143" stop-color="#257FBC"/>
<stop offset="0.8481" stop-color="#0A70B4"/>
<stop offset="0.927" stop-color="#006AB1"/>
<stop offset="0.9288" stop-color="#046BB2"/>
<stop offset="0.9489" stop-color="#2678B8"/>
<stop offset="0.968" stop-color="#3E81BD"/>
<stop offset="0.9856" stop-color="#4D86C0"/>
<stop offset="1" stop-color="#5288C1"/>
</linearGradient>
</defs>
</svg>
